<!DOCTYPE svg PUBLIC "-//W3C//DTD SVG 1.1//EN" "http://www.w3.org/Graphics/SVG/1.1/DTD/svg11.dtd">
<!-- Uploaded to: SVG Repo, www.svgrepo.com, Transformed by: SVG Repo Mixer Tools -->
<svg fill="#d6bf4c" height="800px" width="800px" version="1.1" id="Layer_1" xmlns="http://www.w3.org/2000/svg" xmlns:xlink="http://www.w3.org/1999/xlink" viewBox="0 0 512 512" xml:space="preserve" stroke="#d6bf4c">
<g id="SVGRepo_bgCarrier" stroke-width="0"/>
<g id="SVGRepo_tracerCarrier" stroke-linecap="round" stroke-linejoin="round"/>
<g id="SVGRepo_iconCarrier"> <g> <g> <path d="M428.973,387.459c-7.276,0-14.26,1.266-20.757,3.57V103.784C408.216,46.557,361.659,0,304.432,0h-20.757v391.03 c-6.497-2.304-13.481-3.57-20.757-3.57c-34.336,0-62.27,27.934-62.27,62.27S228.583,512,262.919,512 c34.336,0,62.27-27.934,62.27-62.27V318.27h41.513V449.73c0,34.336,27.934,62.27,62.27,62.27s62.27-27.934,62.27-62.27 S463.309,387.459,428.973,387.459z M262.919,470.487c-11.445,0-20.757-9.312-20.757-20.757s9.311-20.757,20.757-20.757 c11.445,0,20.757,9.312,20.757,20.757S274.364,470.487,262.919,470.487z M366.703,276.757h-41.513V45.07 c24.162,8.567,41.513,31.653,41.513,58.714V276.757z M428.973,470.487c-11.445,0-20.757-9.312-20.757-20.757 s9.311-20.757,20.757-20.757c11.445,0,20.757,9.312,20.757,20.757S440.418,470.487,428.973,470.487z"/> </g> </g> <g> <g> <path d="M242.162,41.513V0H124.541C67.314,0,20.757,46.557,20.757,103.784V512h124.541V318.27h96.865v-41.513h-96.865v-27.676 h96.865v-41.514h-96.865v-27.676h96.865v-41.514h-96.865v-27.676h96.865V69.189h-96.865V41.513H242.162z M103.784,470.487H62.27 V103.784c0-27.061,17.351-50.147,41.514-58.714V470.487z"/> </g> </g> </g>
</svg>