<?xml version="1.0" encoding="iso-8859-1"?>
<!-- Uploaded to: SVG Repo, www.svgrepo.com, Generator: SVG Repo Mixer Tools -->
<svg height="800px" width="800px" version="1.1" id="Layer_1" xmlns="http://www.w3.org/2000/svg" xmlns:xlink="http://www.w3.org/1999/xlink" 
	 viewBox="0 0 511.993 511.993" xml:space="preserve">
<path style="fill:#F6BB42;" d="M255.996,0c-12.062,13.5-40.062,305.589-88.561,352.072c1.062-0.047,2.156-0.078,3.219-0.078
	c39.156,0,71.374,30.281,74.437,68.655c1.156-5.844,2.281-13.312,3.359-22.938c1.984-17.562,3.64-40.718,4.937-68.827
	c2.203-47.671,2.609-93.912,2.609-94.373l2.594,94.373c1.312,28.109,2.969,51.266,4.938,68.827
	c1.094,9.656,2.219,17.125,3.375,22.969c3.047-38.374,35.266-68.687,74.436-68.687c1.062,0,2.141,0.031,3.219,0.062
	C296.043,305.589,268.058,13.5,255.996,0z"/>
<path style="fill:#FFCE54;" d="M291.855,191.755h-71.734c-4.265,22.046-8.89,43.819-13.875,63.999h99.483
	C300.746,235.574,296.121,213.801,291.855,191.755z"/>
<path style="fill:#434A54;" d="M266.652,223.754c0,5.891-4.766,10.672-10.656,10.672c-5.906,0-10.671-4.781-10.671-10.672
	s4.765-10.664,10.671-10.664C261.887,213.09,266.652,217.863,266.652,223.754z"/>
<path style="fill:#FFCE54;" d="M341.338,341.338c-47.123,0-85.326,38.188-85.342,85.295c-0.016-47.107-38.218-85.295-85.342-85.295
	s-85.311,38.188-85.311,85.311c0,47.141,38.187,85.344,85.311,85.344c47.125,0,85.327-38.188,85.342-85.312
	c0.016,47.125,38.219,85.312,85.342,85.312c47.125,0,85.312-38.203,85.312-85.344C426.649,379.525,388.463,341.338,341.338,341.338z
	 M170.654,490.648c-35.281,0-63.999-28.703-63.999-64c0-35.279,28.718-63.998,63.999-63.998c35.296,0,63.999,28.719,63.999,63.998
	C234.653,461.945,205.95,490.648,170.654,490.648z M341.338,490.648c-35.295,0-63.998-28.703-63.998-64
	c0-35.279,28.703-63.998,63.998-63.998c35.281,0,64,28.719,64,63.998C405.338,461.945,376.619,490.648,341.338,490.648z"/>
</svg>